<?xml version="1.0" encoding="UTF-8"?>
<mxfile host="app.diagrams.net">
  <diagram name="Submit Art Form Wireframe" id="submit-form">
    <mxGraphModel dx="1434" dy="844" grid="1" gridSize="10" guides="1" tooltips="1" connect="1" arrows="1" fold="1" page="1" pageScale="1" pageWidth="1200" pageHeight="2000" math="0" shadow="0">
      <root>
        <mxCell id="0" />
        <mxCell id="1" parent="0" />

        <!-- Browser Window -->
        <mxCell id="browser" value="" style="rounded=0;whiteSpace=wrap;html=1;fillColor=#f5f5f5;strokeColor=#666666;" vertex="1" parent="1">
          <mxGeometry x="40" y="40" width="1120" height="1920" as="geometry" />
        </mxCell>

        <!-- Header -->
        <mxCell id="header" value="HEADER - Indigenous Art Atlas | Submit New Art (highlighted)" style="rounded=0;whiteSpace=wrap;html=1;fillColor=#dae8fc;strokeColor=#6c8ebf;fontStyle=1" vertex="1" parent="1">
          <mxGeometry x="40" y="40" width="1120" height="60" as="geometry" />
        </mxCell>

        <!-- Progress Indicator -->
        <mxCell id="progress-container" value="PROGRESS INDICATOR" style="rounded=0;whiteSpace=wrap;html=1;fillColor=#ffffff;strokeColor=#666666;fontStyle=1" vertex="1" parent="1">
          <mxGeometry x="140" y="140" width="920" height="100" as="geometry" />
        </mxCell>

        <!-- Progress Steps -->
        <mxCell id="step1-circle" value="1" style="ellipse;whiteSpace=wrap;html=1;fillColor=#d2691e;strokeColor=none;fontColor=#ffffff;fontSize=16;fontStyle=1" vertex="1" parent="1">
          <mxGeometry x="220" y="160" width="50" height="50" as="geometry" />
        </mxCell>

        <mxCell id="step1-label" value="Art Details" style="text;html=1;strokeColor=none;fillColor=none;align=center;verticalAlign=middle;whiteSpace=wrap;rounded=0;fontSize=11;fontColor=#d2691e;fontStyle=1" vertex="1" parent="1">
          <mxGeometry x="195" y="215" width="100" height="20" as="geometry" />
        </mxCell>

        <mxCell id="line1" value="" style="endArrow=none;html=1;strokeWidth=2;strokeColor=#cccccc;" edge="1" parent="1">
          <mxGeometry width="50" height="50" relative="1" as="geometry">
            <mxPoint x="270" y="185" as="sourcePoint" />
            <mxPoint x="380" y="185" as="targetPoint" />
          </mxGeometry>
        </mxCell>

        <mxCell id="step2-circle" value="2" style="ellipse;whiteSpace=wrap;html=1;fillColor=#e0e0e0;strokeColor=none;fontColor=#666666;fontSize=16;" vertex="1" parent="1">
          <mxGeometry x="380" y="160" width="50" height="50" as="geometry" />
        </mxCell>

        <mxCell id="step2-label" value="Location" style="text;html=1;strokeColor=none;fillColor=none;align=center;verticalAlign=middle;whiteSpace=wrap;rounded=0;fontSize=11;fontColor=#666666;" vertex="1" parent="1">
          <mxGeometry x="355" y="215" width="100" height="20" as="geometry" />
        </mxCell>

        <mxCell id="line2" value="" style="endArrow=none;html=1;strokeWidth=2;strokeColor=#cccccc;" edge="1" parent="1">
          <mxGeometry width="50" height="50" relative="1" as="geometry">
            <mxPoint x="430" y="185" as="sourcePoint" />
            <mxPoint x="540" y="185" as="targetPoint" />
          </mxGeometry>
        </mxCell>

        <mxCell id="step3-circle" value="3" style="ellipse;whiteSpace=wrap;html=1;fillColor=#e0e0e0;strokeColor=none;fontColor=#666666;fontSize=16;" vertex="1" parent="1">
          <mxGeometry x="540" y="160" width="50" height="50" as="geometry" />
        </mxCell>

        <mxCell id="step3-label" value="Images" style="text;html=1;strokeColor=none;fillColor=none;align=center;verticalAlign=middle;whiteSpace=wrap;rounded=0;fontSize=11;fontColor=#666666;" vertex="1" parent="1">
          <mxGeometry x="515" y="215" width="100" height="20" as="geometry" />
        </mxCell>

        <mxCell id="line3" value="" style="endArrow=none;html=1;strokeWidth=2;strokeColor=#cccccc;" edge="1" parent="1">
          <mxGeometry width="50" height="50" relative="1" as="geometry">
            <mxPoint x="590" y="185" as="sourcePoint" />
            <mxPoint x="700" y="185" as="targetPoint" />
          </mxGeometry>
        </mxCell>

        <mxCell id="step4-circle" value="4" style="ellipse;whiteSpace=wrap;html=1;fillColor=#e0e0e0;strokeColor=none;fontColor=#666666;fontSize=16;" vertex="1" parent="1">
          <mxGeometry x="700" y="160" width="50" height="50" as="geometry" />
        </mxCell>

        <mxCell id="step4-label" value="Artist Info" style="text;html=1;strokeColor=none;fillColor=none;align=center;verticalAlign=middle;whiteSpace=wrap;rounded=0;fontSize=11;fontColor=#666666;" vertex="1" parent="1">
          <mxGeometry x="675" y="215" width="100" height="20" as="geometry" />
        </mxCell>

        <mxCell id="line4" value="" style="endArrow=none;html=1;strokeWidth=2;strokeColor=#cccccc;" edge="1" parent="1">
          <mxGeometry width="50" height="50" relative="1" as="geometry">
            <mxPoint x="750" y="185" as="sourcePoint" />
            <mxPoint x="860" y="185" as="targetPoint" />
          </mxGeometry>
        </mxCell>

        <mxCell id="step5-circle" value="5" style="ellipse;whiteSpace=wrap;html=1;fillColor=#e0e0e0;strokeColor=none;fontColor=#666666;fontSize=16;" vertex="1" parent="1">
          <mxGeometry x="860" y="160" width="50" height="50" as="geometry" />
        </mxCell>

        <mxCell id="step5-label" value="Review" style="text;html=1;strokeColor=none;fillColor=none;align=center;verticalAlign=middle;whiteSpace=wrap;rounded=0;fontSize=11;fontColor=#666666;" vertex="1" parent="1">
          <mxGeometry x="835" y="215" width="100" height="20" as="geometry" />
        </mxCell>

        <!-- Form Container -->
        <mxCell id="form-container" value="" style="rounded=0;whiteSpace=wrap;html=1;fillColor=#ffffff;strokeColor=#666666;" vertex="1" parent="1">
          <mxGeometry x="140" y="280" width="920" height="1600" as="geometry" />
        </mxCell>

        <!-- Form Title -->
        <mxCell id="form-title" value="Step 1: Art Details" style="text;html=1;strokeColor=none;fillColor=none;align=left;verticalAlign=middle;whiteSpace=wrap;rounded=0;fontSize=20;fontStyle=1" vertex="1" parent="1">
          <mxGeometry x="180" y="310" width="840" height="30" as="geometry" />
        </mxCell>

        <!-- Art Title Field -->
        <mxCell id="title-label" value="Art Title *" style="text;html=1;strokeColor=none;fillColor=none;align=left;verticalAlign=middle;whiteSpace=wrap;rounded=0;fontSize=13;fontStyle=1" vertex="1" parent="1">
          <mxGeometry x="180" y="370" width="840" height="20" as="geometry" />
        </mxCell>

        <mxCell id="title-input" value="[Text Input]" style="rounded=0;whiteSpace=wrap;html=1;fillColor=#f5f5f5;strokeColor=#666666;align=left;fontSize=12;" vertex="1" parent="1">
          <mxGeometry x="180" y="395" width="840" height="35" as="geometry" />
        </mxCell>

        <mxCell id="title-help" value="Required. Max 200 characters. Character count: 0/200" style="text;html=1;strokeColor=none;fillColor=none;align=left;verticalAlign=middle;whiteSpace=wrap;rounded=0;fontSize=10;fontColor=#666666;" vertex="1" parent="1">
          <mxGeometry x="180" y="435" width="840" height="15" as="geometry" />
        </mxCell>

        <!-- Description Field -->
        <mxCell id="desc-label" value="Description *" style="text;html=1;strokeColor=none;fillColor=none;align=left;verticalAlign=middle;whiteSpace=wrap;rounded=0;fontSize=13;fontStyle=1" vertex="1" parent="1">
          <mxGeometry x="180" y="470" width="840" height="20" as="geometry" />
        </mxCell>

        <mxCell id="desc-input" value="[Textarea - 6 rows]&#xa;&#xa;Provide detailed description and&#xa;cultural context..." style="rounded=0;whiteSpace=wrap;html=1;fillColor=#f5f5f5;strokeColor=#666666;align=left;verticalAlign=top;fontSize=12;" vertex="1" parent="1">
          <mxGeometry x="180" y="495" width="840" height="120" as="geometry" />
        </mxCell>

        <!-- Form Row: Art Type and Period -->
        <mxCell id="type-label" value="Art Type *" style="text;html=1;strokeColor=none;fillColor=none;align=left;verticalAlign=middle;whiteSpace=wrap;rounded=0;fontSize=13;fontStyle=1" vertex="1" parent="1">
          <mxGeometry x="180" y="640" width="400" height="20" as="geometry" />
        </mxCell>

        <mxCell id="type-select" value="[Dropdown Select]&#xa;- Select type -&#xa;Cave Art&#xa;Rock Art&#xa;Mural&#xa;..." style="rounded=0;whiteSpace=wrap;html=1;fillColor=#f5f5f5;strokeColor=#666666;align=left;fontSize=12;" vertex="1" parent="1">
          <mxGeometry x="180" y="665" width="400" height="35" as="geometry" />
        </mxCell>

        <mxCell id="period-label" value="Art Period *" style="text;html=1;strokeColor=none;fillColor=none;align=left;verticalAlign=middle;whiteSpace=wrap;rounded=0;fontSize=13;fontStyle=1" vertex="1" parent="1">
          <mxGeometry x="620" y="640" width="400" height="20" as="geometry" />
        </mxCell>

        <mxCell id="period-select" value="[Dropdown Select]&#xa;- Select period -&#xa;Ancient&#xa;Colonial Era&#xa;Modern&#xa;..." style="rounded=0;whiteSpace=wrap;html=1;fillColor=#f5f5f5;strokeColor=#666666;align=left;fontSize=12;" vertex="1" parent="1">
          <mxGeometry x="620" y="665" width="400" height="35" as="geometry" />
        </mxCell>

        <!-- Condition Field -->
        <mxCell id="cond-label" value="Condition / Quality Notes" style="text;html=1;strokeColor=none;fillColor=none;align=left;verticalAlign=middle;whiteSpace=wrap;rounded=0;fontSize=13;fontStyle=1" vertex="1" parent="1">
          <mxGeometry x="180" y="730" width="840" height="20" as="geometry" />
        </mxCell>

        <mxCell id="cond-input" value="[Textarea - 4 rows]&#xa;&#xa;Describe current condition,&#xa;any damage, preservation efforts..." style="rounded=0;whiteSpace=wrap;html=1;fillColor=#f5f5f5;strokeColor=#666666;align=left;verticalAlign=top;fontSize=12;" vertex="1" parent="1">
          <mxGeometry x="180" y="755" width="840" height="90" as="geometry" />
        </mxCell>

        <!-- Step 2 Preview -->
        <mxCell id="divider1" value="" style="endArrow=none;html=1;strokeWidth=2;strokeColor=#e0e0e0;" edge="1" parent="1">
          <mxGeometry width="50" height="50" relative="1" as="geometry">
            <mxPoint x="180" y="900" as="sourcePoint" />
            <mxPoint x="1020" y="900" as="targetPoint" />
          </mxGeometry>
        </mxCell>

        <!-- Location Step Preview -->
        <mxCell id="step2-preview-title" value="Step 2: Location Information (Next)" style="text;html=1;strokeColor=none;fillColor=none;align=left;verticalAlign=middle;whiteSpace=wrap;rounded=0;fontSize=16;fontStyle=1;fontColor=#999999;" vertex="1" parent="1">
          <mxGeometry x="180" y="930" width="840" height="25" as="geometry" />
        </mxCell>

        <mxCell id="map-preview" value="[ Interactive Map Preview ]&#xa;&#xa;🗺️ Click on map to set location&#xa;or search for address..." style="rounded=0;whiteSpace=wrap;html=1;fillColor=#e3f2fd;strokeColor=#999999;strokeWidth=1;strokeStyle=dashed;align=center;fontSize=12;fontColor=#666666;" vertex="1" parent="1">
          <mxGeometry x="180" y="965" width="840" height="200" as="geometry" />
        </mxCell>

        <mxCell id="sensitivity-checkbox" value="☐ This location is culturally sensitive / restricted" style="text;html=1;strokeColor=none;fillColor=none;align=left;verticalAlign=middle;whiteSpace=wrap;rounded=0;fontSize=12;fontColor=#666666;" vertex="1" parent="1">
          <mxGeometry x="180" y="1180" width="400" height="20" as="geometry" />
        </mxCell>

        <mxCell id="sensitivity-warning" value="⚠️ If marked as sensitive, exact coordinates may be hidden&#xa;or shown as general area only. Admin will review." style="rounded=0;whiteSpace=wrap;html=1;fillColor=#fff3e0;strokeColor=#ff9800;align=left;fontSize=11;fontColor=#e65100;" vertex="1" parent="1">
          <mxGeometry x="180" y="1210" width="840" height="50" as="geometry" />
        </mxCell>

        <!-- Step 3 Preview -->
        <mxCell id="divider2" value="" style="endArrow=none;html=1;strokeWidth=2;strokeColor=#e0e0e0;" edge="1" parent="1">
          <mxGeometry width="50" height="50" relative="1" as="geometry">
            <mxPoint x="180" y="1300" as="sourcePoint" />
            <mxPoint x="1020" y="1300" as="targetPoint" />
          </mxGeometry>
        </mxCell>

        <mxCell id="step3-preview-title" value="Step 3: Upload Images (Later)" style="text;html=1;strokeColor=none;fillColor=none;align=left;verticalAlign=middle;whiteSpace=wrap;rounded=0;fontSize=16;fontStyle=1;fontColor=#999999;" vertex="1" parent="1">
          <mxGeometry x="180" y="1330" width="840" height="25" as="geometry" />
        </mxCell>

        <mxCell id="upload-preview" value="[ Upload Area - Drag &amp; Drop ]&#xa;&#xa;📁&#xa;&#xa;Drag images here or click to browse&#xa;&#xa;Accepted: JPG, PNG | Max 5MB | Up to 6 images" style="rounded=0;whiteSpace=wrap;html=1;fillColor=#f5f5f5;strokeColor=#999999;strokeWidth=1;strokeStyle=dashed;align=center;fontSize=12;fontColor=#666666;" vertex="1" parent="1">
          <mxGeometry x="180" y="1365" width="840" height="180" as="geometry" />
        </mxCell>

        <!-- Step 4 Preview -->
        <mxCell id="divider3" value="" style="endArrow=none;html=1;strokeWidth=2;strokeColor=#e0e0e0;" edge="1" parent="1">
          <mxGeometry width="50" height="50" relative="1" as="geometry">
            <mxPoint x="180" y="1590" as="sourcePoint" />
            <mxPoint x="1020" y="1590" as="targetPoint" />
          </mxGeometry>
        </mxCell>

        <mxCell id="step4-preview-title" value="Step 4: Artist Information (Later)" style="text;html=1;strokeColor=none;fillColor=none;align=left;verticalAlign=middle;whiteSpace=wrap;rounded=0;fontSize=16;fontStyle=1;fontColor=#999999;" vertex="1" parent="1">
          <mxGeometry x="180" y="1620" width="840" height="25" as="geometry" />
        </mxCell>

        <mxCell id="artist-preview" value="⚪ Artist is Unknown&#xa;⚪ I am the Artist&#xa;⚪ Attributing to Another Artist" style="rounded=0;whiteSpace=wrap;html=1;fillColor=#f5f5f5;strokeColor=#999999;strokeWidth=1;strokeStyle=dashed;align=left;verticalAlign=top;fontSize=12;fontColor=#666666;" vertex="1" parent="1">
          <mxGeometry x="180" y="1655" width="840" height="80" as="geometry" />
        </mxCell>

        <!-- Form Actions -->
        <mxCell id="actions-container" value="" style="rounded=0;whiteSpace=wrap;html=1;fillColor=none;strokeColor=none;" vertex="1" parent="1">
          <mxGeometry x="180" y="1800" width="840" height="60" as="geometry" />
        </mxCell>

        <mxCell id="btn-cancel" value="Cancel" style="rounded=1;whiteSpace=wrap;html=1;fillColor=#f5f5f5;strokeColor=#666666;fontSize=13;" vertex="1" parent="1">
          <mxGeometry x="180" y="1810" width="140" height="40" as="geometry" />
        </mxCell>

        <mxCell id="btn-next" value="Next →" style="rounded=1;whiteSpace=wrap;html=1;fillColor=#d2691e;strokeColor=none;fontColor=#ffffff;fontSize=13;fontStyle=1" vertex="1" parent="1">
          <mxGeometry x="880" y="1810" width="140" height="40" as="geometry" />
        </mxCell>

        <!-- Footer -->
        <mxCell id="footer" value="FOOTER" style="rounded=0;whiteSpace=wrap;html=1;fillColor=#3e2723;strokeColor=#000000;fontColor=#ffffff;align=center;" vertex="1" parent="1">
          <mxGeometry x="40" y="1920" width="1120" height="40" as="geometry" />
        </mxCell>

        <!-- Annotations -->
        <mxCell id="note1" value="💡 Active step shown&#xa;in orange, completed&#xa;in green, pending&#xa;in gray" style="text;html=1;strokeColor=#b85450;fillColor=#f8cecc;align=left;verticalAlign=middle;whiteSpace=wrap;rounded=0;fontSize=9;" vertex="1" parent="1">
          <mxGeometry x="1100" y="170" width="110" height="50" as="geometry" />
        </mxCell>

        <mxCell id="note2" value="💡 Form auto-saves&#xa;draft every 2 minutes" style="text;html=1;strokeColor=#b85450;fillColor=#f8cecc;align=left;verticalAlign=middle;whiteSpace=wrap;rounded=0;fontSize=9;" vertex="1" parent="1">
          <mxGeometry x="1100" y="400" width="110" height="35" as="geometry" />
        </mxCell>

        <mxCell id="note3" value="💡 Validation occurs&#xa;when clicking Next" style="text;html=1;strokeColor=#b85450;fillColor=#f8cecc;align=left;verticalAlign=middle;whiteSpace=wrap;rounded=0;fontSize=9;" vertex="1" parent="1">
          <mxGeometry x="1100" y="1820" width="110" height="30" as="geometry" />
        </mxCell>

      </root>
    </mxGraphModel>
  </diagram>
</mxfile>